<svg xmlns="http://www.w3.org/2000/svg" viewBox="0 0 1024 1024" role="img" aria-labelledby="title desc">
  <title id="title">YouTube Bootlegger logo</title>
  <desc id="desc">Square red-bordered mark with a jagged red sword-wielding warrior on black.</desc>

  <rect width="1024" height="1024" fill="#e62e3e"/>
  <rect x="56" y="56" width="912" height="912" fill="#0a0a0a"/>

  <!-- sword blade -->
  <path d="M 318 742 L 358 698 L 748 248 L 782 268 L 392 718 Z" fill="#e62e3e"/>

  <!-- guard and grip -->
  <path d="M 286 728 L 312 770 L 358 792 L 396 756 L 378 702 L 334 684 L 298 694 Z" fill="#e62e3e"/>
  <path d="M 336 676 L 372 636 L 396 648 L 362 688 Z" fill="#e62e3e"/>

  <!-- torso and raised arm -->
  <path d="M 372 628 L 404 548 L 438 468 L 468 482 L 442 562 L 418 642 L 392 668 Z" fill="#e62e3e"/>
  <path d="M 404 548 L 318 498 L 286 432 L 312 418 L 378 472 L 418 522 Z" fill="#e62e3e"/>

  <!-- head -->
  <path d="M 430 452 L 448 404 L 482 392 L 508 418 L 492 462 L 454 478 Z" fill="#e62e3e"/>

  <!-- trailing cloak stroke -->
  <path d="M 302 756 L 248 828 L 268 846 L 328 772 Z" fill="#e62e3e"/>
</svg>
